HIERARCHY
ROOT root
{
	OFFSET 0.000000 0.000000 0.000000
	CHANNELS 6 Xposition Yposition Zposition Zrotation Yrotation Xrotation
	JOINT lhip
	{
		OFFSET 0.058581 -0.082280 -0.017664
		CHANNELS 3 Zrotation Yrotation Xrotation
		JOINT lknee
		{
			OFFSET 0.043451 -0.386469 0.008037
			CHANNELS 3 Zrotation Yrotation Xrotation
			JOINT lankle
			{
				OFFSET -0.014790 -0.426874 -0.037428
				CHANNELS 3 Zrotation Yrotation Xrotation
				JOINT ltoe
				{
					OFFSET 0.041054 -0.060286 0.122042
					CHANNELS 3 Zrotation Yrotation Xrotation
					End Site
					{
						OFFSET 0.000000 0.000000 0.000000
					}
				}
			}
		}
	}
	JOINT rhip
	{
		OFFSET -0.060310 -0.090513 -0.013543
		CHANNELS 3 Zrotation Yrotation Xrotation
		JOINT rknee
		{
			OFFSET -0.043257 -0.383688 -0.004843
			CHANNELS 3 Zrotation Yrotation Xrotation
			JOINT rankle
			{
				OFFSET 0.019056 -0.420046 -0.034562
				CHANNELS 3 Zrotation Yrotation Xrotation
				JOINT rtoe
				{
					OFFSET -0.034840 -0.062106 0.130323
					CHANNELS 3 Zrotation Yrotation Xrotation
					End Site
					{
						OFFSET 0.000000 0.000000 0.000000
					}
				}
			}
		}
	}
	JOINT lowerback
	{
		OFFSET 0.004439 0.124404 -0.038385
		CHANNELS 3 Zrotation Yrotation Xrotation
		JOINT upperback
		{
			OFFSET 0.004488 0.137956 0.026820
			CHANNELS 3 Zrotation Yrotation Xrotation
			JOINT chest
			{
				OFFSET -0.002265 0.056032 0.002855
				CHANNELS 3 Zrotation Yrotation Xrotation
				JOINT lowerneck
				{
					OFFSET -0.013390 0.211636 -0.033468
					CHANNELS 3 Zrotation Yrotation Xrotation
					JOINT upperneck
					{
						OFFSET 0.010113 0.088937 0.050410
						CHANNELS 3 Zrotation Yrotation Xrotation
						End Site
						{
							OFFSET 0.000000 0.000000 0.000000
						}
					}
				}
				JOINT lclavicle
				{
					OFFSET 0.071702 0.114000 -0.018898
					CHANNELS 3 Zrotation Yrotation Xrotation
					JOINT lshoulder
					{
						OFFSET 0.122921 0.045205 -0.019046
						CHANNELS 3 Zrotation Yrotation Xrotation
						JOINT lelbow
						{
							OFFSET 0.255332 -0.015649 -0.022946
							CHANNELS 3 Zrotation Yrotation Xrotation
							JOINT lwrist
							{
								OFFSET 0.265709 0.012698 -0.007375
								CHANNELS 3 Zrotation Yrotation Xrotation
								End Site
								{
									OFFSET 0.000000 0.000000 0.000000
								}
							}
						}
					}
				}
				JOINT rclavicle
				{
					OFFSET -0.082954 0.112472 -0.023707
					CHANNELS 3 Zrotation Yrotation Xrotation
					JOINT rshoulder
					{
						OFFSET -0.113228 0.046853 -0.008472
						CHANNELS 3 Zrotation Yrotation Xrotation
						JOINT relbow
						{
							OFFSET -0.260127 -0.014369 -0.031269
							CHANNELS 3 Zrotation Yrotation Xrotation
							JOINT rwrist
							{
								OFFSET -0.269108 0.006794 -0.006027
								CHANNELS 3 Zrotation Yrotation Xrotation
								End Site
								{
									OFFSET 0.000000 0.000000 0.000000
								}
							}
						}
					}
				}
			}
		}
	}
}
MOTION
Frames: 7
Frame Time: 0.033333
0.294907 -0.222709 0.983223 175.836060 -0.878946 93.645998 4.638050 -0.020270 -15.324845 -6.710448 -5.274781 11.358728 2.270303 6.715380 -5.371781 0.000000 -0.000000 0.000000 -5.514624 -3.532715 -22.124906 0.940774 -1.757840 20.778525 4.090635 -4.917823 -3.527492 0.000000 -0.000000 0.000000 0.771136 1.026547 23.441652 -0.160369 -1.861773 4.175318 0.127627 0.477793 2.504968 -1.453262 5.634104 21.762329 6.212343 5.873907 18.070184 -20.050324 -16.608447 4.989773 -66.378301 -17.563957 25.785572 -9.935467 -54.490109 14.487636 24.049534 20.530378 -44.030573 15.742666 17.568259 4.438056 71.468259 18.144964 26.397140 -9.116689 45.708332 -6.128715 -9.318910 -6.397505 -32.940737 
0.295148 -0.223303 0.983065 175.880326 -0.901667 93.738929 4.659297 -0.096088 -15.478886 -6.717683 -5.168113 11.381945 2.578679 6.623177 -5.393124 0.000000 -0.000000 0.000000 -5.575834 -3.494686 -22.196842 0.974767 -1.866628 20.716008 4.056572 -4.880408 -3.434248 0.000000 -0.000000 0.000000 0.802247 1.154675 23.308894 -0.150609 -1.961265 4.318320 0.097290 0.534428 2.489302 -1.536892 5.754318 21.987766 6.298634 5.932758 17.770050 -20.143353 -16.763282 5.101300 -66.276690 -17.614687 25.835731 -9.745670 -54.615134 14.255328 24.115598 20.913570 -44.213019 15.763465 17.760131 4.714005 71.314265 18.316774 26.386258 -9.320257 45.660609 -5.879048 -9.421647 -6.748897 -33.261042 
0.295468 -0.223758 0.982945 175.871751 -0.881329 93.767297 4.729385 -0.105760 -15.564260 -6.762485 -5.162077 11.448035 2.627899 6.600238 -5.405987 0.000000 -0.000000 0.000000 -5.543729 -3.565332 -22.190370 1.026773 -1.864998 20.591506 3.957175 -4.853551 -3.448766 0.000000 -0.000000 0.000000 0.888493 1.248463 23.328164 -0.203865 -1.880477 4.289497 0.082960 0.535460 2.529316 -1.647930 5.699242 22.075340 6.354601 6.002011 17.656851 -20.163395 -16.874773 5.168146 -66.327880 -17.687885 25.851784 -9.520470 -54.412398 14.112313 23.630576 20.814566 -44.530296 15.618346 17.946660 4.672816 71.207439 18.362002 26.352543 -9.053159 45.496898 -5.662491 -9.290125 -6.610610 -33.302390 
0.295846 -0.224476 0.982846 175.854776 -0.857979 93.765105 4.756078 -0.154938 -15.756303 -6.745127 -5.164579 11.773598 2.637631 6.670081 -5.572489 0.000000 -0.000000 0.000000 -5.500948 -3.597519 -22.187168 1.102079 -1.787045 20.532523 4.000412 -4.806507 -3.426920 0.000000 -0.000000 0.000000 0.946470 1.335823 23.473435 -0.307485 -1.804478 4.231977 0.063843 0.623590 2.515138 -1.544955 5.658469 22.088835 6.530870 6.264536 17.673865 -20.198555 -16.959862 5.180167 -66.325027 -17.713757 25.872428 -9.392125 -54.412432 13.736763 23.928015 20.918179 -44.539920 15.512782 18.228200 4.726021 71.021908 18.395281 26.362002 -8.876711 45.508788 -5.723848 -9.381777 -6.618157 -33.616049 
0.295789 -0.224767 0.982773 175.880855 -0.856880 93.742515 4.709509 -0.189711 -15.845370 -6.686908 -5.180288 11.938016 2.653401 6.715614 -5.600267 0.000000 -0.000000 0.000000 -5.508040 -3.585010 -22.141357 1.101807 -1.799114 20.470868 4.011809 -4.857197 -3.405937 0.000000 -0.000000 0.000000 0.977817 1.273278 23.568423 -0.347501 -1.778538 4.193496 0.052460 0.734832 2.528594 -1.535128 5.712905 22.051901 6.547720 6.374526 17.687633 -20.205481 -16.947423 5.130857 -66.343209 -17.748047 25.932608 -9.532250 -54.275847 13.906936 23.631691 20.636833 -45.145687 15.338784 18.203726 4.650042 70.901058 18.511763 26.380164 -8.372511 45.471531 -5.214073 -9.227309 -6.468856 -34.080903 
0.296257 -0.225143 0.982537 175.779181 -0.817149 93.745279 4.809327 -0.184989 -15.944115 -6.737727 -5.138713 12.099988 2.695319 6.749210 -5.650554 0.000000 -0.000000 0.000000 -5.444369 -3.533066 -22.265257 1.129634 -1.830421 20.618566 4.008255 -4.878684 -3.416572 0.000000 -0.000000 0.000000 0.922563 1.295602 23.665992 -0.410633 -1.660639 4.120211 0.117148 0.809728 2.529072 -1.435498 5.878109 22.107250 6.721414 6.839752 17.670055 -20.104785 -16.991051 5.133237 -66.390155 -17.742274 25.927673 -9.663130 -54.189364 13.754326 23.886683 20.565519 -45.062392 15.089004 18.458397 4.657517 70.769326 18.600781 26.512627 -7.989247 45.386705 -4.981607 -9.143188 -6.297000 -34.386492 
0.296430 -0.225183 0.982226 175.708351 -0.841046 93.745172 4.814891 -0.154122 -16.045308 -6.817438 -5.156258 12.294663 2.786727 6.836770 -5.689549 0.000000 -0.000000 0.000000 -5.467252 -3.532633 -22.379455 1.159738 -1.728075 20.784817 4.000251 -4.923611 -3.454680 0.000000 -0.000000 0.000000 0.880019 1.355473 23.795590 -0.487875 -1.563470 3.933049 0.171204 0.834301 2.553542 -1.283830 6.028283 22.110607 6.830557 7.367042 17.763844 -20.092281 -17.076416 5.189819 -66.398259 -17.654690 25.952546 -9.701573 -54.198023 13.810848 24.320784 20.813995 -45.118608 14.919941 18.586667 4.765007 70.571309 18.684198 26.555336 -7.439198 45.448920 -4.529457 -9.535511 -6.520627 -34.581175 
